<svg width="16" height="16" viewBox="0 0 16 16" fill="none" xmlns="http://www.w3.org/2000/svg">
<rect x="-0.000976562" width="16" height="16" rx="3" fill="#FF9A03"/>
<path d="M12.311 3.035C11.233 3.453 10.023 3.673 8.65902 3.695V8.469C8.61502 10.086 8.27402 11.351 7.65802 12.264L8.48302 13.133C9.28602 11.967 9.71502 10.416 9.77002 8.469V7.424H10.958V13.155H12.091V7.424H13.103V6.335H9.77002V4.63C10.903 4.564 11.937 4.377 12.872 4.069L12.311 3.035ZM3.12602 3.805V4.861H8.17502V3.805H6.17302C6.04102 3.453 5.92002 3.134 5.78802 2.848L4.60002 3.046C4.75402 3.277 4.89702 3.53 5.02902 3.805H3.12602ZM3.01602 6.302V7.347H5.10602V8.238H3.19202V9.283H5.10602V11.89C5.10602 12.099 4.97402 12.209 4.73202 12.209C4.60002 12.209 4.44602 12.176 4.28102 12.132L4.53402 13.188H5.10602C5.86502 13.188 6.25002 12.847 6.25002 12.165V9.283H8.05402V8.238H6.25002V7.347H8.24102V6.302H7.17402C7.31702 5.983 7.44902 5.642 7.58102 5.268L6.55802 4.905C6.43702 5.389 6.29402 5.851 6.12902 6.302H5.16102C5.00702 5.763 4.85302 5.301 4.68802 4.905L3.67602 5.29C3.85202 5.598 4.00602 5.939 4.13802 6.302H3.01602ZM3.80802 9.712C3.62102 10.603 3.29102 11.45 2.81802 12.242L3.77502 12.847C4.23702 12.022 4.58902 11.054 4.84202 9.932L3.80802 9.712ZM7.37202 9.646L6.42602 9.899C6.66802 10.548 6.87702 11.219 7.04202 11.901L8.01002 11.527C7.85602 10.955 7.63602 10.328 7.37202 9.646Z" fill="white"/>
</svg>
